<svg version="1.1" id="Layer_1" xmlns="http://www.w3.org/2000/svg" xmlns:xlink="http://www.w3.org/1999/xlink" x="0px" y="0px"
	 width="100%" viewBox="0 0 1024 1024" enable-background="new 0 0 1024 1024" xml:space="preserve">
<path fill="#000000" opacity="1.000000" stroke="none" 
	d="
M745.043396,168.046585 
	C748.891541,164.815506 750.588989,168.006699 752.556152,170.106720 
	C754.599976,170.125626 755.573608,168.902481 756.276917,167.325897 
	C752.482361,162.482971 752.479370,160.828568 756.227356,158.103485 
	C758.961060,156.115875 759.514465,156.353668 763.010376,161.018509 
	C765.359863,159.811844 765.359863,159.811844 767.165222,157.569656 
	C765.562134,155.497086 761.518188,154.133484 765.466553,150.251831 
	C769.686829,146.102798 771.403503,150.217499 773.563599,152.066849 
	C775.589172,151.668564 776.602600,150.662033 777.430115,148.985001 
	C775.421387,146.418365 772.461670,143.819687 776.872803,140.513168 
	C780.635132,137.693024 782.154175,140.566956 783.997314,142.861832 
	C786.023193,142.887741 786.959106,141.485291 788.247925,139.966202 
	C785.124573,137.368759 783.154419,134.550522 787.335205,131.158600 
	C791.573608,127.720032 792.564758,132.373367 794.865967,134.069046 
	C796.699463,133.983109 797.771851,132.924545 798.292847,131.249023 
	C798.006531,128.928345 794.336243,128.595306 795.158630,125.918144 
	C795.765137,123.943840 797.444336,122.629990 799.318054,121.834801 
	C801.031555,121.107582 802.186279,122.328598 803.103760,123.531799 
	C804.855286,125.828835 806.658447,126.143608 809.555908,125.193771 
	C821.163330,121.388550 833.658936,125.957840 839.202515,135.629669 
	C845.032593,145.801147 842.553406,158.236771 833.052063,166.786560 
	C828.217651,171.136871 822.448242,173.776184 816.297913,175.354446 
	C811.462219,176.595337 809.301880,179.431686 807.948730,184.041656 
	C804.619995,195.382065 800.724426,206.554886 797.231750,217.849167 
	C796.252563,221.015579 794.543640,222.855026 791.352356,223.906479 
	C783.288452,226.563278 775.364075,229.642441 767.307617,232.323364 
	C763.737305,233.511444 761.482910,235.701874 759.654114,238.930389 
	C742.498535,269.216644 725.412781,299.544983 707.950134,329.654266 
	C683.136108,372.438934 657.992371,415.032227 633.057556,457.747040 
	C627.852295,466.664093 622.898010,475.729187 617.917419,484.775238 
	C615.471863,489.216949 617.164001,505.597198 620.533630,509.271088 
	C623.512939,512.519348 626.740479,510.938293 629.449402,508.830933 
	C635.890076,503.820557 642.111450,498.529358 648.503357,493.454742 
	C652.182007,490.534210 656.135437,488.040741 661.025696,487.730621 
	C672.392822,487.009766 680.775391,494.988068 682.333496,507.659027 
	C684.458984,524.943604 679.455627,539.493286 666.363403,551.187317 
	C660.519592,556.406982 654.610657,561.531982 648.345764,566.243103 
	C647.068970,567.203247 645.328857,567.797302 645.090881,569.663269 
	C645.302124,570.692200 646.011047,571.345154 646.806396,571.380920 
	C652.432190,571.633911 658.017212,571.516785 663.092224,574.899048 
	C664.863647,576.079651 666.702515,573.742493 668.279175,572.619446 
	C682.009949,562.839111 697.140381,556.485535 714.081421,558.993958 
	C723.640137,560.409424 726.819336,557.042664 730.732666,549.066711 
	C742.562378,524.956238 775.331421,520.156250 793.127502,539.134521 
	C798.245300,544.592163 800.524719,551.342712 801.229370,558.604492 
	C801.622070,562.651611 803.371704,564.399170 807.466187,564.772034 
	C818.259155,565.754700 826.887451,570.500977 831.987671,580.435913 
	C833.271606,582.937073 834.554443,583.580994 837.434753,582.974609 
	C848.977478,580.544312 860.334961,582.201416 871.347351,585.871582 
	C881.793518,589.352905 886.360962,598.201111 881.951050,609.072998 
	C869.688293,639.304626 857.780579,669.786377 838.058777,696.302246 
	C827.941162,709.905396 816.236389,721.679993 799.765442,727.159302 
	C783.971191,732.413452 768.322388,733.006836 754.123047,722.260925 
	C751.763855,720.475525 749.777283,718.197937 747.247437,715.795410 
	C740.204407,721.256897 733.998230,727.853394 726.271667,732.457825 
	C705.348572,744.926453 683.343628,750.149292 659.435791,742.330322 
	C655.124329,740.920288 651.206909,738.644897 647.669006,735.845703 
	C645.427063,734.071899 643.590698,734.211914 641.413452,735.831726 
	C637.806885,738.514954 634.115234,741.087830 630.396057,743.613953 
	C628.251099,745.070679 627.778137,747.333740 627.076416,749.556519 
	C618.805725,775.755066 611.072815,802.153931 600.171814,827.427002 
	C591.675598,847.124573 578.840698,863.155334 557.689270,869.875732 
	C537.425537,876.314087 517.457275,875.809204 500.007568,861.512024 
	C489.125122,852.595642 484.842194,840.179932 483.859711,826.669800 
	C482.659180,810.161377 486.030151,794.561218 494.868164,780.324158 
	C498.103790,775.111877 497.044403,773.103577 490.971802,772.108582 
	C485.887238,771.275391 480.723114,770.643250 476.274750,767.680176 
	C473.769348,766.011353 471.941315,767.617004 469.951355,768.866455 
	C453.748474,779.039734 436.626892,781.637207 418.411438,775.011902 
	C413.139526,773.094421 409.358276,769.009949 404.978119,765.337402 
	C399.016022,771.578918 394.387238,778.535889 388.379517,784.285645 
	C358.833923,812.562378 324.287231,821.468506 284.814209,810.993713 
	C281.421295,810.093384 279.109772,811.012756 276.511810,812.738281 
	C260.107819,823.633362 242.019287,827.792908 222.693283,824.459290 
	C198.717194,820.323669 184.289963,804.752808 181.977951,780.503662 
	C180.096680,760.772339 185.215530,743.166504 200.701004,729.583069 
	C203.988251,726.699524 207.630188,724.320740 211.548828,722.510925 
	C215.329636,720.764771 216.054459,718.616211 213.895294,715.123657 
	C206.216232,702.701965 202.513199,688.929871 200.532990,674.636719 
	C195.691696,639.692322 202.606506,607.131287 220.611938,576.862976 
	C221.974533,574.572388 223.317322,572.269836 224.695526,569.988708 
	C226.218857,567.467346 224.918198,565.554688 223.379044,563.689270 
	C221.653351,561.597778 220.046844,563.149841 218.526398,563.955750 
	C203.889023,571.714050 188.406845,574.153015 172.079147,571.498596 
	C141.989258,566.606873 128.362183,540.213257 131.104401,513.399963 
	C133.039490,494.478729 141.293411,479.489227 158.497742,470.196289 
	C160.673248,469.021179 163.266846,468.639832 165.088547,466.774719 
	C165.629272,465.038666 164.369278,463.907288 163.665237,462.679718 
	C154.099777,446.001434 149.662262,427.917084 148.597626,408.849640 
	C146.479385,370.912201 157.339096,337.028595 181.423843,307.812958 
	C202.107346,282.723083 228.914200,268.095306 261.509125,264.575989 
	C285.944305,261.937683 309.395966,264.792236 331.146820,276.976959 
	C357.101562,291.516754 372.072052,314.392029 380.280365,342.312012 
	C380.749420,343.907471 381.043152,345.555145 381.527130,347.145447 
	C382.702850,351.008942 385.190369,352.082214 388.838074,350.393066 
	C393.362213,348.298096 397.583801,345.447662 402.541290,344.423584 
	C413.774475,342.103180 425.146240,340.628906 436.595215,340.208496 
	C441.043884,340.045166 443.345276,339.072174 444.510956,334.265717 
	C447.528290,321.824280 451.291229,318.938599 464.044281,317.555603 
	C467.187134,317.214722 470.332794,316.878876 473.485199,316.652863 
	C477.239136,316.383698 479.640015,314.726990 480.532288,310.867645 
	C482.854858,300.822083 485.282990,290.800293 487.752075,280.789520 
	C488.507385,277.727203 489.263031,274.617401 490.486481,271.727478 
	C493.509277,264.587555 499.035919,260.783112 506.837708,260.741364 
	C522.002380,260.660217 537.169617,260.576813 552.332397,260.766571 
	C564.774292,260.922241 569.459045,267.363556 566.122620,279.361542 
	C564.294922,285.934113 562.163574,292.421875 560.307312,298.986969 
	C558.787476,304.362122 560.172424,305.734772 565.800720,305.891846 
	C571.115112,306.040192 576.325989,304.159576 581.695984,305.497681 
	C588.648071,307.230072 593.104675,312.412201 592.685303,319.496338 
	C591.967468,331.621063 592.206665,344.018982 589.561462,355.741974 
	C587.580933,364.518921 588.994324,369.399841 595.528992,375.519592 
	C603.017517,382.532715 604.270386,392.765167 601.960999,402.966980 
	C601.297546,405.898071 600.890991,408.780060 601.804810,411.663025 
	C604.038879,412.155975 604.685791,410.547607 605.421570,409.376617 
	C619.689514,386.669983 633.977600,363.975616 648.135864,341.200562 
	C670.122070,305.833282 692.017639,270.409515 713.942627,235.004135 
	C717.449524,229.341034 720.730652,223.528000 724.455750,218.013672 
	C726.862854,214.450546 727.061279,211.018951 725.644470,207.165756 
	C724.842163,204.983994 724.430908,202.659500 723.646057,200.470062 
	C722.650146,197.691666 723.492004,195.900146 725.787842,194.065323 
	C728.852722,191.615860 732.315430,189.484436 734.630127,185.794724 
	C732.001099,183.065918 729.979919,180.439270 734.084595,177.188065 
	C738.491333,173.697632 739.120605,178.976273 741.525146,180.065445 
	C743.439514,179.433197 744.611694,178.116486 745.515625,176.152542 
	C744.266357,173.730347 739.901184,171.333588 745.043396,168.046585 
M555.613220,844.188721 
	C567.760376,837.549622 574.186768,826.180176 579.383301,814.205933 
	C590.808899,787.877930 598.249146,760.169006 606.457275,732.746338 
	C607.536743,729.139771 609.045776,726.543640 612.243958,724.573425 
	C624.546326,716.994812 635.068665,707.317444 644.651611,696.567444 
	C645.599426,695.504150 646.289734,693.945007 648.556885,694.324097 
	C649.712219,697.208618 650.790039,700.324158 652.179749,703.293762 
	C657.337646,714.315125 665.952087,720.640747 678.143738,721.661560 
	C688.398499,722.520142 697.909058,719.857117 706.980713,715.149780 
	C724.747192,705.930725 735.803406,690.994385 743.634583,673.088074 
	C753.141724,651.349548 759.241699,628.483093 766.314209,605.935547 
	C768.615845,598.597839 770.255737,597.808533 777.249329,600.902405 
	C781.971558,602.991394 783.530579,605.984497 781.864014,612.051880 
	C779.264832,621.514771 776.128479,630.829468 773.258606,640.218872 
	C768.639343,655.331970 763.378174,670.325439 763.360046,686.408142 
	C763.343384,701.145020 771.113708,707.805115 785.680969,705.616089 
	C787.961731,705.273315 790.225220,704.555176 792.387390,703.725769 
	C804.971680,698.898560 813.344849,689.142090 820.755432,678.578613 
	C836.077332,656.737793 845.652283,631.915405 856.702271,607.869629 
	C856.879028,607.484863 856.675537,606.925354 856.651611,606.486572 
	C847.083923,603.108154 843.194214,604.617676 839.610779,613.355652 
	C833.983398,627.077271 828.150879,640.697083 820.796875,653.606873 
	C815.597595,662.734192 810.426819,671.925354 802.423462,678.978882 
	C798.952209,682.038269 794.695496,685.807434 790.058105,683.077515 
	C785.528870,680.411194 786.438843,674.960815 787.295837,670.304749 
	C789.972290,655.763245 796.294312,642.470642 801.616150,628.838928 
	C805.066101,620.001953 809.272888,611.445557 811.924561,602.316406 
	C814.291870,594.166565 810.652161,588.369385 802.345398,587.096313 
	C794.784729,585.937683 787.169678,585.028992 779.545654,584.427490 
	C774.843994,584.056580 774.064270,582.267761 775.347229,577.967224 
	C777.101929,572.085205 778.362549,566.064331 776.902832,559.784180 
	C775.215576,552.524597 770.192749,549.108704 762.927612,550.663757 
	C759.759155,551.341919 756.992737,552.767212 754.631104,555.014099 
	C745.447144,563.751465 744.617920,581.758484 753.226257,591.022766 
	C755.135071,593.077026 755.342346,594.850159 754.633606,597.294678 
	C752.037903,606.247437 749.717896,615.282410 747.002258,624.197632 
	C742.248596,639.804199 738.002502,655.665649 730.031616,670.024353 
	C722.114014,684.287109 711.205444,695.463989 694.770996,699.769470 
	C684.450806,702.473145 677.949585,698.948364 674.500549,688.902649 
	C672.484192,683.030029 671.761108,676.921021 671.840637,670.713501 
	C671.880127,667.630981 673.073120,666.014526 676.411438,665.379639 
	C682.940308,664.138184 689.464478,662.654053 695.803772,660.672607 
	C719.657654,653.216858 736.046143,633.152893 734.776367,607.816589 
	C733.922424,590.778503 723.060364,580.735962 706.190735,582.006958 
	C696.612488,582.728638 688.605530,586.923828 681.643066,593.183228 
	C660.464661,612.222900 650.851807,636.932251 647.397461,664.472046 
	C646.676331,670.221008 645.430115,675.324768 641.634521,679.993408 
	C634.665405,688.565674 626.876892,696.282104 618.760620,703.708740 
	C617.505066,704.857605 616.272400,706.364319 613.894287,705.877258 
	C614.002930,704.876282 613.989136,704.059937 614.189331,703.299927 
	C617.580627,690.426208 620.896423,677.531372 624.433899,664.697693 
	C630.182373,643.842224 636.103821,623.034485 641.899231,602.191833 
	C643.510681,596.396240 642.034912,594.893616 636.010986,595.837402 
	C631.080750,596.609802 626.155029,597.438171 621.201721,598.026123 
	C618.032715,598.402222 616.663269,600.085327 615.972168,603.073730 
	C615.287354,606.034851 615.252747,609.303345 613.297668,611.752319 
	C611.547607,611.667175 610.893311,610.571838 610.422424,609.586975 
	C605.893372,600.116028 593.536377,597.217468 583.386414,600.293579 
	C572.458862,603.605347 564.055725,610.609680 557.053772,619.320801 
	C539.915100,640.643188 532.673950,665.892212 530.739258,692.434875 
	C529.776184,705.646790 522.202698,713.537415 514.269165,721.878540 
	C511.950897,724.315918 508.450409,726.266968 504.749603,724.063354 
	C501.241547,721.974487 501.054932,718.248169 501.330017,714.756897 
	C501.668579,710.459778 502.347687,706.167297 503.198639,701.936951 
	C506.189606,687.068359 510.984955,672.686218 515.231995,658.157959 
	C519.387573,643.942749 523.660339,629.761475 527.750916,615.527771 
	C529.026550,611.089050 527.975037,610.052307 523.426575,610.699707 
	C517.826172,611.496826 512.250549,612.495789 506.633392,613.137390 
	C503.445068,613.501465 502.128082,615.205139 501.252045,618.079895 
	C500.284363,621.255493 500.530609,624.956299 497.224152,628.281067 
	C496.777039,627.404968 496.432373,626.818542 496.167786,626.197998 
	C490.250641,612.317932 475.542053,611.316711 463.325317,617.004150 
	C453.573822,621.544006 445.756561,628.490967 439.464081,637.063293 
	C420.821442,662.460632 413.921753,691.314331 415.544830,722.339233 
	C416.012848,731.284973 418.135681,740.180054 423.948853,747.567871 
	C427.957062,752.661743 433.335785,754.977539 439.727295,754.449951 
	C447.251740,753.828735 453.739532,750.645386 459.626251,745.939270 
	C466.114227,740.752563 470.903046,734.198853 475.480621,727.415283 
	C476.329926,726.156616 476.608734,724.187561 479.104980,724.232910 
	C479.529602,728.365784 480.055389,732.488525 481.476746,736.390808 
	C484.582977,744.918823 489.574615,748.398560 498.616974,747.653442 
	C509.051422,746.793640 516.737122,740.763916 523.606445,733.420105 
	C526.396545,730.437256 528.184326,726.544617 531.635864,724.184265 
	C533.577454,725.161072 533.672791,727.015686 534.367554,728.446533 
	C539.216736,738.432800 547.510315,742.458923 558.199341,739.706970 
	C569.083435,736.904785 576.559387,729.302307 583.678650,721.241638 
	C584.931335,719.823242 585.658752,717.762329 588.659729,717.269592 
	C586.350891,724.534363 586.070129,731.390625 578.671997,736.482849 
	C559.752075,749.505737 541.461365,763.538330 525.149414,779.819153 
	C513.112610,791.832886 506.308014,806.266602 507.289276,823.792236 
	C508.044800,837.286377 515.795410,846.184509 528.871094,848.858154 
	C538.234863,850.772705 546.662903,848.387451 555.613220,844.188721 
M172.261398,397.601135 
	C172.135010,404.432312 171.984619,411.287781 173.364380,418.012024 
	C176.137253,431.525665 177.229630,445.953033 191.549942,453.472992 
	C196.882721,448.890778 202.212372,444.106537 207.778778,439.615814 
	C210.501297,437.419464 210.476242,435.699402 208.441101,433.011597 
	C205.207764,428.741211 202.879593,423.916779 201.676804,418.641571 
	C194.870529,388.790833 199.927933,360.814758 217.053436,335.717865 
	C233.805389,311.168396 258.247620,302.205048 286.930359,308.106689 
	C312.227295,313.311646 324.934204,331.937561 330.234467,355.907837 
	C338.628296,393.868774 333.658081,430.757843 319.385437,466.494843 
	C312.699341,483.235992 303.065918,498.158295 288.042328,508.931610 
	C271.974457,520.453796 252.568909,519.189453 236.511093,510.602417 
	C233.978043,509.247833 232.941330,507.690918 234.018692,504.583984 
	C246.687286,468.049377 253.316269,429.905457 263.686737,392.754395 
	C269.687134,371.258606 275.230591,349.581177 288.311615,330.920135 
	C290.139221,328.312897 289.258789,326.787781 286.982941,325.193085 
	C279.093109,319.664581 267.375824,321.716278 260.503204,329.955688 
	C256.723389,334.487183 254.165970,339.703064 252.061066,345.177155 
	C241.333603,373.075348 234.847748,402.144684 228.175674,431.171753 
	C223.779648,450.296875 219.034607,469.341858 214.654251,488.470459 
	C213.703552,492.622162 212.186935,493.304413 208.541687,491.268799 
	C204.607681,489.071869 200.234619,487.894775 195.817673,486.936279 
	C172.224762,481.816406 153.261505,497.751923 154.360779,521.806335 
	C154.974747,535.241394 164.659393,546.270020 177.153595,547.665161 
	C194.879242,549.644531 209.095947,543.240417 220.237732,529.528687 
	C221.579865,527.876953 222.433380,525.767700 224.457062,524.765137 
	C224.845428,524.870789 225.188660,524.908630 225.476456,525.055237 
	C225.919113,525.280762 226.332840,525.567688 226.743118,525.851318 
	C250.318741,542.149658 274.922974,541.762512 299.511475,529.096619 
	C319.037476,519.038513 331.871887,501.970581 341.711243,482.949127 
	C362.410797,442.932709 367.813538,400.467865 359.303345,356.372375 
	C355.149750,334.850525 346.030334,315.459045 327.441925,302.679688 
	C298.064117,282.482727 265.812988,281.396698 234.773727,296.289368 
	C193.588669,316.049988 175.316788,352.090027 172.261398,397.601135 
M244.376053,799.924927 
	C256.378296,797.407227 265.653839,790.661499 272.880341,781.041260 
	C275.098114,778.088745 276.690948,777.685547 279.659180,780.002686 
	C293.944031,791.153809 310.431244,792.908081 327.576416,790.090942 
	C351.807220,786.109314 369.665985,771.890015 382.897400,752.194153 
	C412.520691,708.097839 419.916718,659.414368 409.332123,607.971069 
	C404.965088,586.746216 394.564423,568.288696 376.353394,555.403137 
	C357.977173,542.400696 337.260040,539.780518 315.347687,542.110901 
	C282.882111,545.563599 258.381256,561.568542 241.295807,588.881714 
	C225.203873,614.606628 220.216095,642.927673 224.595337,672.775940 
	C226.546112,686.072144 228.499619,699.815002 243.020554,706.964172 
	C248.873611,701.656616 255.220551,695.901245 261.628540,690.090576 
	C258.481354,685.105896 255.159851,680.681702 253.685547,675.286865 
	C246.208572,647.926758 250.034546,621.844299 262.924683,596.944336 
	C271.596344,580.193115 284.866943,568.308105 303.174988,563.325073 
	C326.601898,556.948792 348.304901,559.921448 365.462799,578.880920 
	C376.215942,590.763184 380.758606,605.596924 383.287750,621.088257 
	C387.351746,645.980774 384.936737,670.564331 378.903503,694.820251 
	C373.074738,718.254028 363.623260,739.951538 345.773682,757.017090 
	C329.957794,772.138306 307.730011,775.010559 288.429108,764.905457 
	C284.782196,762.996094 283.660675,760.984009 285.357452,757.003235 
	C287.177612,752.733032 288.415253,748.199463 289.714813,743.724915 
	C299.461121,710.166809 306.520630,675.920227 315.682648,642.211731 
	C320.845825,623.215576 326.600006,604.433289 337.013580,587.500061 
	C341.207153,580.680908 340.195099,578.023926 332.156067,576.357239 
	C324.555878,574.781555 318.002014,576.798035 312.539093,582.333130 
	C309.445984,585.467102 307.397095,589.287598 305.480804,593.174500 
	C299.557739,605.188354 295.883270,618.009766 292.310028,630.836853 
	C282.930695,664.506531 276.756287,698.935974 268.299316,732.825562 
	C267.198120,737.238342 266.785339,741.924133 264.119171,746.103699 
	C259.414673,744.261353 255.166229,741.978333 250.494064,740.747803 
	C233.745544,736.336792 217.751144,741.535645 209.842529,754.263123 
	C200.243927,769.710449 204.552185,796.170776 226.663116,800.286377 
	C232.276382,801.331238 237.929977,801.174500 244.376053,799.924927 
M609.689209,520.797791 
	C607.459839,518.216919 606.290649,515.106934 605.231079,511.934296 
	C604.350037,509.296295 602.817566,508.269440 600.475220,510.407349 
	C598.747375,511.984375 596.943237,512.387695 595.083008,510.985901 
	C585.293152,503.608673 573.446045,500.072449 563.072571,493.750488 
	C557.550171,490.384888 557.124084,490.675446 560.368225,484.982788 
	C565.808105,475.437073 571.456665,466.008392 577.140320,456.604797 
	C578.504517,454.347778 579.616760,452.173553 576.499573,450.888519 
	C566.864441,446.916504 566.407349,438.809296 567.420593,430.423309 
	C568.712158,419.733917 572.054626,409.664398 578.790955,401.001007 
	C581.585144,397.407440 581.547241,393.567322 579.529724,389.765228 
	C577.565125,386.062775 573.970825,385.924683 570.362183,386.293243 
	C565.782715,386.761017 561.373657,388.278900 557.985352,391.210541 
	C549.304993,398.720947 541.153748,406.808807 535.861938,417.232910 
	C528.864929,431.015991 526.856445,446.064789 525.376282,461.130249 
	C523.542358,479.796783 515.565552,493.568420 497.295502,500.524292 
	C487.330841,504.318085 477.953766,509.479950 469.016235,515.334290 
	C455.326538,524.301514 442.081665,533.752747 432.379700,547.350708 
	C423.822021,559.345032 421.139801,571.950256 427.072693,585.894775 
	C428.959717,590.330017 430.601196,594.879395 432.153503,599.445068 
	C434.505920,606.363892 435.102234,606.613586 441.397675,602.521301 
	C442.514923,601.795105 443.613312,601.036560 444.758423,600.357056 
	C459.036377,591.883850 474.142120,587.994141 490.650513,592.271362 
	C493.764496,593.078247 496.141357,592.400208 498.147644,589.641724 
	C495.857605,586.629700 495.069458,582.740967 491.443146,580.689148 
	C489.740143,579.725586 489.998322,577.913940 490.988983,576.277222 
	C495.213226,569.298279 499.412201,562.304016 503.602570,555.304626 
	C505.151459,552.717407 507.055878,552.135803 509.875214,553.539673 
	C516.553772,556.865356 523.311707,560.036072 530.087219,563.161743 
	C538.309753,566.954956 546.022034,572.043091 555.310669,573.176819 
	C557.128723,573.398743 557.964722,574.863464 559.030029,576.201843 
	C561.493286,579.296509 564.754150,582.124939 568.804993,580.272827 
	C577.567505,576.266602 586.654358,575.152039 596.084167,575.713074 
	C598.789062,575.874084 600.526794,574.609619 601.731506,572.401489 
	C605.122498,566.186157 610.463318,561.995239 616.297058,558.324463 
	C626.166687,552.114197 636.237061,546.139526 645.162354,538.619995 
	C652.804443,532.181580 661.892212,526.538391 662.225647,514.688232 
	C662.283203,512.643127 662.894165,510.515656 661.102051,509.159393 
	C658.939819,507.523010 657.405518,509.681915 655.878235,510.732971 
	C647.894958,516.227051 639.627197,521.213623 630.430115,524.381104 
	C623.251038,526.853638 616.330994,526.423706 609.689209,520.797791 
M455.019409,434.819275 
	C455.485168,433.423401 455.534729,431.602478 457.236389,431.152802 
	C462.400421,429.788177 466.799622,426.679016 471.766663,424.640961 
	C472.704437,426.209747 472.099060,427.449829 471.806763,428.712219 
	C470.418091,434.710144 468.821472,440.672119 467.734833,446.725159 
	C465.705414,458.029877 463.630066,469.382141 467.341034,480.778168 
	C469.989532,488.911407 475.196075,492.861938 483.696716,492.683228 
	C497.091553,492.401642 505.768707,484.189728 512.930481,474.199249 
	C518.408447,466.557526 519.928833,457.627502 519.519592,448.079865 
	C516.819885,448.672089 516.399353,450.682037 515.393188,452.076019 
	C510.996155,458.167877 506.778961,464.466980 499.749969,467.889282 
	C493.160461,471.097534 489.000763,468.484619 488.679535,461.230499 
	C488.402893,454.984131 489.910797,448.987061 491.276245,443.004150 
	C498.172485,412.787231 507.919159,383.383331 516.882935,353.755737 
	C517.729370,350.958069 519.296326,349.948181 522.205505,349.568024 
	C535.733521,347.800110 549.221680,345.728149 562.727173,343.786499 
	C564.214417,343.572693 565.985107,343.669708 566.468018,341.902893 
	C567.634155,337.635925 568.256348,333.277069 568.422363,329.118744 
	C566.432556,328.013947 564.931824,328.363037 563.472473,328.575745 
	C551.949768,330.255463 540.429810,331.954407 528.912720,333.672150 
	C523.763428,334.440125 523.062073,333.724915 524.582214,328.884003 
	C526.427856,323.006409 528.375793,317.161011 530.254150,311.293549 
	C533.028625,302.627197 535.780701,293.953674 538.872742,284.245728 
	C531.424194,284.245728 524.804382,284.536774 518.223511,284.155182 
	C512.790344,283.840179 510.620850,286.136780 509.446381,291.255951 
	C506.212036,305.353424 502.405640,319.318726 498.970306,333.371735 
	C498.113525,336.876648 496.191711,338.147461 492.674713,338.368774 
	C485.705872,338.807343 478.767822,339.716888 471.809448,340.347717 
	C468.576538,340.640778 466.490204,341.926147 466.193420,345.460266 
	C466.055420,347.103516 465.517853,348.713593 465.156708,350.337677 
	C463.858459,356.175903 464.784424,357.003113 470.832611,356.171356 
	C477.831665,355.208832 484.868988,354.524353 491.703186,353.740540 
	C492.536591,355.797638 491.962555,357.019958 491.621277,358.301666 
	C487.636414,373.266876 482.945343,388.018707 478.293396,402.784149 
	C476.240112,409.301453 466.294983,417.131927 458.708038,417.724457 
	C458.708038,414.413971 458.674377,411.124084 458.714264,407.835022 
	C458.838287,397.614014 458.012604,387.541901 453.976624,377.990143 
	C448.145325,364.189392 435.386078,359.478455 423.498566,366.125336 
	C422.322052,366.783142 421.117676,367.441345 419.733490,366.760895 
	C414.547577,364.211487 410.013458,366.401154 405.551270,368.761353 
	C395.320557,374.172760 388.255981,382.760040 382.497498,392.472107 
	C372.016876,410.148224 366.747803,429.505096 365.454163,449.865509 
	C364.551880,464.066559 365.318268,478.185974 372.046265,491.287445 
	C375.296509,497.616699 380.308777,502.121399 387.129944,503.395752 
	C404.074280,506.561432 419.048676,501.940521 430.612274,489.116394 
	C444.269226,473.970734 451.019989,455.388458 455.019409,434.819275 
M756.487305,221.331375 
	C766.106628,202.877411 776.278503,184.730377 786.815918,166.787201 
	C787.952271,164.852188 788.852417,163.237885 786.865540,161.037613 
	C784.649902,158.583832 786.127747,156.396957 788.447937,154.805817 
	C790.719482,153.248077 792.916809,153.536835 794.681946,155.614258 
	C796.661804,157.944214 795.425598,159.947678 793.717163,161.764893 
	C792.698730,162.848099 791.280334,163.679489 790.589111,164.927292 
	C780.342773,183.424255 769.317871,201.492523 759.928467,220.460587 
	C759.400024,221.528259 758.238098,222.632538 759.437500,224.018066 
	C761.123230,223.861664 761.513000,222.409958 762.123657,221.327957 
	C774.313538,199.727554 786.453186,178.098816 798.646179,156.500229 
	C799.768616,154.511932 799.784607,152.870575 798.308289,151.031433 
	C796.657104,148.974380 797.028931,147.012604 799.244385,145.494278 
	C801.147095,144.190262 803.179077,143.282059 805.091125,145.281265 
	C806.980164,147.256516 806.848694,149.410172 805.147217,151.567688 
	C803.607971,153.519455 801.980835,155.451462 800.768799,157.604095 
	C789.169373,178.205353 777.636292,198.844055 766.131897,219.498550 
	C765.143066,221.273880 763.664978,222.978607 764.060730,225.935455 
	C771.417786,223.215851 778.344666,220.504578 785.382141,218.119751 
	C788.711182,216.991608 790.572144,215.030197 791.610535,211.697708 
	C795.374207,199.619080 799.540588,187.662125 803.101135,175.526093 
	C804.322815,171.361938 806.458740,169.630722 810.557129,168.961349 
	C817.751709,167.786270 824.356995,164.980957 829.531372,159.658279 
	C834.435120,154.613922 836.331360,148.530487 833.821411,141.766663 
	C831.205872,134.718460 825.505676,131.829071 818.277100,131.211700 
	C811.553528,130.637497 807.005737,134.554901 802.435608,138.469238 
	C779.678955,157.960236 756.950012,177.483582 734.202820,196.985641 
	C732.937988,198.070053 731.166199,199.057175 731.518250,200.904892 
	C732.331848,205.175125 733.244019,209.482956 736.321289,213.532700 
	C738.665833,209.781921 740.777832,206.607254 742.671021,203.307053 
	C744.078735,200.853119 740.881287,199.662689 740.792297,197.483429 
	C740.694763,195.095230 741.778687,193.716125 743.830505,192.882034 
	C745.609253,192.158905 747.477844,191.746246 748.886963,193.435959 
	C750.318909,195.153107 750.539001,197.209579 748.877014,198.873627 
	C745.506714,202.247849 743.786072,206.655396 741.273804,210.561218 
	C740.473938,211.804672 738.869080,213.104385 740.536072,215.084930 
	C742.696533,215.290375 743.078430,213.393234 743.821167,212.067154 
	C746.747437,206.842316 749.534668,201.538437 752.524475,196.350967 
	C753.845337,194.059143 754.692993,192.130524 752.926147,189.522644 
	C751.116821,186.851883 752.997498,184.794586 755.100403,183.207520 
	C757.294189,181.551926 759.234558,182.608932 760.897888,184.180420 
	C763.174011,186.330994 761.488464,188.270935 760.131775,189.834518 
	C753.824280,197.103882 750.114624,205.922562 745.398132,214.138443 
	C744.859131,215.077423 743.884705,216.074753 745.016785,217.274033 
	C746.511658,217.820694 747.118469,216.821747 747.694824,215.762405 
	C753.183777,205.673782 758.655212,195.575607 764.178162,185.505661 
	C765.295532,183.468353 765.896851,181.689209 764.010193,179.649887 
	C762.044739,177.525452 763.233215,175.699112 765.098999,174.146774 
	C767.191101,172.406113 769.303955,172.247620 771.389771,174.098434 
	C773.578369,176.040466 772.633972,177.857620 771.186096,179.758636 
	C762.863708,190.685547 757.349243,203.263229 750.552795,215.087219 
	C749.811096,216.377518 748.399597,217.769272 749.638184,219.658463 
	C752.311646,219.654343 752.707703,217.332321 753.515259,215.696930 
	C759.635315,203.303375 766.320740,191.218597 773.255737,179.270203 
	C775.062988,176.156601 777.420288,173.526688 774.866333,169.396133 
	C773.246399,166.776154 775.879578,164.815506 778.035767,163.466125 
	C780.060425,162.199097 781.488037,163.522705 782.711792,165.004852 
	C784.320251,166.952759 784.641479,169.238052 782.555359,170.746307 
	C777.950378,174.075729 776.268860,179.283035 773.679688,183.850708 
	C767.276184,195.147125 761.157227,206.605774 755.004761,218.042725 
	C753.564392,220.720154 753.712036,220.799576 756.487305,221.331375 
M410.284912,527.276062 
	C403.192505,528.274597 396.100098,529.273193 388.709351,530.313782 
	C389.130829,531.638306 389.234100,532.293579 389.530731,532.844849 
	C393.416229,540.065491 400.604462,544.125671 406.060822,549.849548 
	C408.316376,552.215637 410.854523,550.419983 411.545532,547.490479 
	C412.729431,542.471313 414.253235,537.600952 416.149170,532.801453 
	C417.854095,528.485474 415.904938,526.480896 410.284912,527.276062 
M733.190186,246.022552 
	C732.855896,246.806732 732.548279,247.731522 733.452209,248.201126 
	C734.634338,248.815186 735.267212,247.813507 735.749756,246.955048 
	C738.984009,241.201416 742.210938,235.443207 745.366821,229.646484 
	C745.756531,228.930557 745.653137,228.002487 743.727112,227.403885 
	C740.373352,233.284851 736.911682,239.354996 733.190186,246.022552 
M533.153381,584.185547 
	C530.901428,583.267334 531.220947,581.145569 531.300110,579.172180 
	C526.227600,581.111877 525.292358,580.350281 525.827271,575.151978 
	C524.327209,576.034485 522.566406,578.660583 521.250793,576.932739 
	C518.550293,573.386108 513.446411,575.369202 511.231934,571.041809 
	C510.498352,573.726440 512.093140,574.423462 513.290161,575.066650 
	C519.558044,578.434448 525.885742,581.691406 532.214905,584.943542 
	C532.598511,585.140625 533.494202,585.854431 533.153381,584.185547 
M746.889038,237.466614 
	C747.730530,234.907181 750.732483,233.026413 749.270142,228.443893 
	C744.745789,236.144730 740.566956,242.744659 738.018066,250.279282 
	C742.391907,247.253372 743.868286,242.257263 746.889038,237.466614 
M710.072510,269.807587 
	C708.591248,267.145477 707.685059,269.278320 707.027222,270.325928 
	C704.302002,274.665680 701.710571,279.089752 699.090149,283.494812 
	C698.558716,284.388184 698.192932,285.323334 700.368103,286.592682 
	C703.541565,281.221222 706.742432,275.803436 710.072510,269.807587 
M713.816101,292.493927 
	C718.596008,287.741272 720.960449,281.626312 723.358398,275.516510 
	C718.651794,280.323578 714.343079,285.357422 713.816101,292.493927 
M731.604980,268.050049 
	C730.950745,270.011658 728.915283,271.664520 730.176270,275.138794 
	C734.123352,268.483398 738.532593,263.179901 739.982605,256.299133 
	C735.931824,259.113800 734.440796,263.601440 731.604980,268.050049 
M727.119507,266.431030 
	C726.486023,268.283569 724.557129,269.816895 725.773499,273.365326 
	C729.731384,266.362579 733.639465,260.557556 735.858521,253.827744 
	C731.375061,256.727203 730.341492,261.888885 727.119507,266.431030 
M735.589661,227.433945 
	C735.943237,226.237747 737.292114,225.286377 735.983398,222.714096 
	C731.560730,229.993530 727.485962,236.700409 723.411194,243.407288 
	C723.955505,243.767578 724.499817,244.127884 725.044128,244.488174 
	C728.455505,239.002457 731.866943,233.516739 735.589661,227.433945 
M737.530090,233.105225 
	C739.859680,228.999161 739.859680,228.999161 739.872681,225.964508 
	C735.417053,232.572784 731.277832,238.951157 728.639038,246.250854 
	C732.442017,242.727493 734.753601,238.197815 737.530090,233.105225 
M752.512878,237.111282 
	C753.235901,235.470184 754.744507,233.999252 753.643188,230.723709 
	C749.531067,238.291306 745.214111,244.507980 742.343811,251.481644 
	C742.798462,251.734085 743.253052,251.986511 743.707703,252.238937 
	C746.519226,247.402771 749.330688,242.566589 752.512878,237.111282 
M720.798096,257.237335 
	C719.145508,260.507111 716.572449,263.344208 715.670227,267.361786 
	C720.067993,265.604614 725.704529,255.405502 725.516663,249.458984 
	C723.872864,252.173340 722.525330,254.398422 720.798096,257.237335 
M711.186890,288.256805 
	C713.632446,283.203796 717.628418,278.861359 718.475220,273.050751 
	C713.963379,277.998657 710.743103,283.628632 707.746521,289.653717 
	C709.706787,290.345062 710.369263,289.756866 711.186890,288.256805 
M729.000488,258.525696 
	C729.813843,256.422577 731.874023,254.676758 730.985413,250.846359 
	C726.243835,257.205688 723.102417,263.159424 720.346436,269.321930 
	C720.838867,269.613190 721.331299,269.904480 721.823730,270.195770 
	C724.090454,266.513153 726.357239,262.830536 729.000488,258.525696 
M691.713440,306.293060 
	C692.044067,307.738708 693.187561,307.825745 693.813171,306.939362 
	C697.154785,302.205109 700.155579,297.264160 702.190369,291.843567 
	C701.649475,291.508026 701.108521,291.172485 700.567566,290.836914 
	C697.670166,295.792419 694.772766,300.747955 691.713440,306.293060 
M704.853760,283.971619 
	C704.375366,285.238068 702.613770,286.094696 703.992004,288.684265 
	C708.554443,283.180450 711.994690,277.628418 713.903564,271.142029 
	C709.826721,274.437897 707.805359,279.115448 704.853760,283.971619 
M703.872742,310.926392 
	C706.124756,306.125183 710.057007,302.137543 710.632812,296.443054 
	C706.312683,300.552612 703.580444,305.740570 701.373230,311.093353 
	C700.708679,312.704987 702.584106,312.344116 703.872742,310.926392 
M689.662231,299.074524 
	C688.817871,301.112671 686.771667,302.661469 687.478821,305.437500 
	C692.446411,301.395691 694.324707,295.417603 697.193726,290.048706 
	C693.298645,291.683655 692.290649,295.573853 689.662231,299.074524 
M691.294434,287.579681 
	C687.196594,291.995148 684.401184,297.121338 682.808777,302.916992 
	C686.938782,298.488953 690.911865,293.985657 691.294434,287.579681 
M716.866638,254.336792 
	C714.865479,257.929871 711.980103,261.085693 711.634644,265.542084 
	C716.421204,261.002716 718.894897,255.104599 721.381287,249.185226 
	C718.987976,249.905182 718.296997,251.975632 716.866638,254.336792 
M685.842285,309.271942 
	C684.539001,307.898254 683.713257,308.967224 683.167786,309.966827 
	C680.860840,314.194458 677.495911,317.959961 676.993591,323.050262 
	C681.270630,319.408264 683.543640,314.561951 685.842285,309.271942 
M684.466492,333.506287 
	C684.659058,332.509155 684.904724,331.489105 682.839294,331.044891 
	C680.402954,335.420593 677.889832,339.934235 675.376648,344.447906 
	C675.956970,344.787628 676.537292,345.127380 677.117615,345.467133 
	C679.833374,341.931763 682.314331,338.229553 684.466492,333.506287 
M682.090210,343.358673 
	C681.618286,344.648224 680.030029,345.701965 681.718994,348.109802 
	C685.441833,343.784241 688.235718,339.413696 689.172668,333.945618 
	C685.525818,335.875061 684.415833,339.639648 682.090210,343.358673 
M725.264221,230.790970 
	C723.230896,234.427109 720.503052,237.731766 720.067383,242.182434 
	C724.149536,237.000763 728.012695,231.714081 730.787903,224.623291 
	C727.693176,226.121384 726.980408,228.436371 725.264221,230.790970 
M714.093018,253.652969 
	C715.396179,251.583847 716.573303,249.465759 716.480225,246.779800 
	C712.044189,251.426193 709.537903,257.214783 706.658752,262.801178 
	C710.485596,261.046082 711.567078,257.239319 714.093018,253.652969 
M666.614014,353.133270 
	C667.696777,350.858490 669.487976,348.831116 669.414795,344.734955 
	C664.924744,349.156342 662.549255,353.418762 660.312317,358.599823 
	C664.358154,358.410645 664.729614,355.464050 666.614014,353.133270 
M679.551941,328.884399 
	C674.579224,332.043365 672.831543,337.134369 671.521179,342.509216 
	C674.909607,338.473419 678.546021,334.615662 679.551941,328.884399 
M689.286255,315.126587 
	C689.582947,313.735931 691.824158,312.690674 689.445984,310.027496 
	C686.213928,315.052124 683.134338,319.567627 681.933594,325.099243 
	C685.849304,322.992310 686.499268,318.742310 689.286255,315.126587 
M672.704651,353.409973 
	C673.141357,351.600922 675.821167,350.327332 673.746460,347.109406 
	C670.250977,351.656219 667.402893,355.857269 665.230591,362.181854 
	C669.545349,359.752319 670.839050,356.782501 672.704651,353.409973 
M662.623413,348.261566 
	C663.190857,346.831299 664.816833,345.709412 663.976685,343.818298 
	C659.730896,345.756500 655.761597,352.326202 656.522339,356.443756 
	C660.039612,355.024475 660.215271,351.212158 662.623413,348.261566 
M712.210022,301.781281 
	C710.529358,305.998383 707.062805,309.376190 706.578979,314.199524 
	C710.758850,309.678070 713.716309,304.442993 716.538696,298.725006 
	C713.744934,298.300323 713.393616,300.054413 712.210022,301.781281 
M726.096191,282.787476 
	C726.714722,281.194092 728.310852,279.888672 727.310852,276.805786 
	C723.397705,282.697784 720.039490,287.959839 717.979980,293.988129 
	C721.810486,291.284821 723.079407,286.848389 726.096191,282.787476 
M677.821838,355.557587 
	C678.443237,354.003326 680.520264,352.980682 679.176819,349.681427 
	C674.976868,353.953094 672.629395,358.479309 671.269775,363.683777 
	C674.601379,362.156464 675.652954,358.841675 677.821838,355.557587 
M699.049255,308.965057 
	C701.232117,304.968140 703.995911,301.235321 704.748413,296.522736 
	C700.682495,299.760590 698.491516,304.212036 696.653870,308.792847 
	C696.250671,309.797882 697.643433,310.210693 699.049255,308.965057 
M703.556335,269.813721 
	C703.714417,269.219482 703.872498,268.625275 704.374695,266.737640 
	C699.253052,272.157745 696.145691,277.208160 694.397888,283.092010 
	C698.920349,279.891296 700.737366,274.881592 703.556335,269.813721 
M667.781250,339.831390 
	C670.300354,335.770874 673.444885,332.008728 674.094360,327.023041 
	C670.408447,330.259338 668.020935,334.326874 665.968628,338.598816 
	C665.439819,339.699554 665.792419,340.575317 667.781250,339.831390 
M696.763306,328.924530 
	C696.389893,329.949860 695.327087,330.830963 696.490906,332.864227 
	C700.357910,328.124420 702.866760,323.110352 704.923279,317.809082 
	C701.008240,320.420593 699.578857,324.753479 696.763306,328.924530 
M676.606506,310.301331 
	C674.517883,313.654205 671.792480,316.697998 671.504822,320.959229 
	C675.832520,317.552521 678.230713,312.971252 680.133789,307.757111 
	C678.223083,307.732849 677.807983,309.002502 676.606506,310.301331 
M653.799377,372.968750 
	C656.420532,369.843658 658.831604,366.617554 658.784790,362.133118 
	C655.254089,364.870789 653.039673,368.496094 651.815002,372.726746 
	C651.624512,373.384735 652.603088,373.590454 653.799377,372.968750 
M667.069580,368.132812 
	C665.426270,371.620392 662.258484,374.447479 662.322510,378.740997 
	C666.080566,376.310059 667.844727,372.503967 669.492432,368.753937 
	C670.092407,367.388641 668.846191,366.716583 667.069580,368.132812 
M657.781372,372.882324 
	C657.381714,374.089630 655.763794,375.395752 658.550354,376.688904 
	C660.912842,373.033386 663.501648,369.537964 664.573730,365.135590 
	C660.904785,366.274567 659.771118,369.515137 657.781372,372.882324 
M672.183716,370.292114 
	C669.993164,373.591248 667.530029,376.760803 667.202820,381.018372 
	C670.742065,378.557617 672.868103,375.070343 674.306580,371.157623 
	C674.594604,370.373901 673.634033,369.794647 672.183716,370.292114 
M646.796631,385.134949 
	C648.035217,382.579071 651.035828,380.618866 649.580505,375.952576 
	C646.774109,380.219849 643.645569,383.075958 642.940613,387.445557 
	C645.455811,388.856079 645.669678,386.788269 646.796631,385.134949 
M654.442688,389.649750 
	C654.034546,390.900543 652.560791,392.296783 655.323669,393.369720 
	C657.075439,390.538971 658.864624,387.666229 660.632263,384.780334 
	C661.199341,383.854584 661.389771,382.901031 660.212830,382.301971 
	C658.944214,381.656250 658.490356,382.656219 657.994568,383.529449 
	C656.942078,385.382904 655.873230,387.227081 654.442688,389.649750 
M653.302490,359.796692 
	C649.806152,362.666992 648.514465,366.804199 646.530579,370.543640 
	C650.568787,369.215393 653.855469,364.039642 653.302490,359.796692 
M679.785217,362.214111 
	C681.471436,359.535248 683.530945,357.025818 683.592590,353.562622 
	C679.766907,356.930878 677.184265,361.029510 675.526489,366.521820 
	C677.849792,365.648712 678.413513,363.998322 679.785217,362.214111 
M638.546448,393.377350 
	C637.363220,395.753143 635.055725,397.610352 634.795532,401.826660 
	C639.771423,399.368286 640.446533,395.187469 642.349304,391.904785 
	C640.300354,390.388702 639.750427,391.975464 638.546448,393.377350 
M650.232849,385.548096 
	C649.909973,387.342224 646.863037,388.598450 649.543884,391.621918 
	C652.357117,387.987793 654.518799,384.518250 655.985168,379.273346 
	C652.482056,380.832825 651.910706,383.253418 650.232849,385.548096 
M656.335144,343.269318 
	C652.296448,348.211121 651.576233,349.609100 651.301331,353.040344 
	C655.720154,349.753967 657.611633,346.734833 658.367432,341.478210 
	C657.684387,342.044128 657.213745,342.434082 656.335144,343.269318 
M637.569641,383.603058 
	C637.460022,384.768463 638.315796,386.059540 639.053345,385.183258 
	C641.565063,382.199371 644.390747,379.227570 645.133789,373.957764 
	C641.256958,376.798004 639.836609,380.139954 637.569641,383.603058 
M645.827271,405.647400 
	C649.320007,405.529449 652.384338,400.499542 651.093689,396.181000 
	C648.680115,399.039825 646.608521,401.688751 645.827271,405.647400 
M628.335449,410.342285 
	C627.724182,411.623474 627.160034,412.888062 629.572571,413.271271 
	C631.469727,410.530090 634.253784,408.180786 634.094788,403.652222 
	C630.636353,404.926300 630.117676,407.783661 628.335449,410.342285 
M641.815247,399.270111 
	C641.339111,400.619873 639.400635,401.843231 641.820801,403.800873 
	C644.842285,401.299744 646.403198,398.153442 647.556152,393.828186 
	C643.896301,394.469055 643.650208,397.192352 641.815247,399.270111 
M691.964661,341.638916 
	C692.584839,339.857391 694.464417,338.520996 693.841553,335.667328 
	C690.325134,340.239471 687.232239,344.415405 686.883606,350.175171 
	C688.479248,347.543518 690.074951,344.911865 691.964661,341.638916 
M664.448853,385.061615 
	C662.009827,387.987915 659.594238,390.926086 658.958130,395.287109 
	C664.005188,392.024506 666.012451,388.416656 664.448853,385.061615 
M696.800293,323.152374 
	C698.309570,320.689636 700.155762,318.386780 700.098022,315.095551 
	C696.804871,317.672241 694.526428,320.850159 693.924805,325.438507 
	C695.566895,325.492462 695.971680,324.524597 696.800293,323.152374 
M644.534241,411.774780 
	C645.299316,410.062988 644.317993,408.649841 643.035156,409.825745 
	C640.712585,411.954620 638.428955,414.596252 638.778931,418.905975 
	C642.237305,417.475922 642.797729,414.541504 644.534241,411.774780 
M634.130127,412.152496 
	C633.647034,413.483185 631.628479,414.931488 634.733643,416.196228 
	C636.504883,413.291779 639.313416,410.887238 639.146301,406.475708 
	C636.052734,407.586639 635.540405,409.845703 634.130127,412.152496 
M631.851318,397.677673 
	C633.678162,395.105286 636.140137,392.840820 636.321777,388.638672 
	C632.138489,390.617401 630.937073,393.933289 629.953247,397.317505 
	C629.762512,397.973724 630.651917,398.297241 631.851318,397.677673 
M667.765198,327.086914 
	C663.679871,328.759979 662.802185,332.632660 660.838440,336.749725 
	C665.931152,334.987366 666.991394,331.206360 667.765198,327.086914 
M627.050354,427.351868 
	C630.327148,425.590454 631.989197,422.991760 631.493469,419.258789 
	C628.802002,421.281219 625.840942,423.111145 627.050354,427.351868 
M633.074646,425.595734 
	C632.526184,427.005280 630.720337,428.153412 632.111572,430.002930 
	C635.965637,428.091888 636.999695,426.425171 636.858337,422.351868 
	C634.442871,421.617584 634.427307,423.983429 633.074646,425.595734 
M642.007690,366.691162 
	C641.709778,367.914093 642.259949,369.069397 643.331970,368.059387 
	C645.548157,365.971588 647.357727,363.434631 647.561340,359.563873 
	C644.065247,360.889435 643.562683,363.843689 642.007690,366.691162 
M636.431091,379.719757 
	C637.253235,377.724243 639.098999,376.056580 638.660522,372.984161 
	C635.300598,375.528320 633.457336,378.228180 633.006104,381.928375 
	C634.863220,382.294128 635.413818,381.185516 636.431091,379.719757 
M620.570923,423.255554 
	C620.454590,424.206573 621.093750,425.268158 621.763367,424.838470 
	C624.635559,422.995422 625.857239,420.208008 625.851318,416.912781 
	C622.963684,418.004791 622.184509,420.586731 620.570923,423.255554 
M657.129883,400.612671 
	C652.637329,401.327789 652.388489,405.145386 651.187378,408.274292 
	C654.975830,407.296936 655.661865,403.901764 657.129883,400.612671 
M626.387329,436.864136 
	C625.867798,438.253937 624.158203,439.711548 626.858032,441.116730 
	C628.865662,439.100647 630.821472,437.150940 629.877747,433.841705 
	C627.818359,433.801056 627.552124,435.375488 626.387329,436.864136 
M626.563721,407.266510 
	C627.014038,406.021667 628.445862,404.637970 625.815186,403.647400 
	C623.944275,405.457458 622.105713,407.277374 622.247437,410.293640 
	C624.765930,410.918518 625.228027,408.985657 626.563721,407.266510 
M614.114075,415.687592 
	C614.521423,414.441406 616.278564,413.483032 614.800354,411.578278 
	C611.907837,413.426025 610.225891,415.822235 609.897278,419.693878 
	C612.149292,419.083099 612.824219,417.521942 614.114075,415.687592 
M646.507874,414.348846 
	C645.466309,416.238495 643.648193,417.813812 643.832336,421.031158 
	C647.458191,418.745056 649.047058,416.065918 649.468323,412.506470 
	C647.763123,411.996979 647.485718,413.170532 646.507874,414.348846 
M615.804688,418.886444 
	C615.270447,420.002777 614.152039,421.152863 616.268799,422.320404 
	C618.828064,420.187134 620.024841,417.362823 620.943542,413.515381 
	C618.093689,414.668091 617.288696,416.680634 615.804688,418.886444 
M541.768494,375.228333 
	C540.312439,376.273132 538.784241,377.233521 537.427063,378.393982 
	C536.597229,379.103607 536.611084,380.150665 537.380249,381.013733 
	C537.985779,381.693176 538.743958,381.789520 539.595093,381.433777 
	C541.105042,380.802673 542.549683,377.373810 541.768494,375.228333 
M694.904602,313.289154 
	C691.257690,314.754089 690.982666,317.796570 690.933655,320.955261 
	C693.191956,318.934418 695.200928,316.812866 694.904602,313.289154 
M622.502502,402.572266 
	C623.048828,401.045746 622.937683,399.478149 620.980713,400.733185 
	C618.845459,402.102570 617.408081,404.353455 617.637939,407.513733 
	C620.592102,407.116180 620.757751,404.477936 622.502502,402.572266 
M638.153259,428.547302 
	C637.868164,429.829468 636.096436,430.859070 637.646484,432.730499 
	C640.283936,430.694244 641.903320,428.361328 641.859192,424.732391 
	C639.686218,425.265472 639.218201,426.777069 638.153259,428.547302 
M619.695984,436.319122 
	C619.744263,438.075134 620.819946,438.471954 621.854492,437.366241 
	C623.431641,435.680634 624.958130,433.765106 624.542053,430.713409 
	C621.651550,431.617828 621.135010,434.017029 619.695984,436.319122 
M613.700317,446.888275 
	C617.062012,447.849670 618.674805,445.622192 617.724915,440.948425 
	C615.492676,442.182098 614.738342,444.354126 613.700317,446.888275 
M618.919067,430.209656 
	C619.217834,429.311340 618.844238,428.069794 618.047607,428.739471 
	C616.107849,430.370056 613.638855,432.053802 614.541748,435.795349 
	C617.229004,434.791016 617.723999,432.582031 618.919067,430.209656 
M603.084900,442.330872 
	C606.793457,441.972321 606.651367,439.232025 607.179016,435.991882 
	C604.160828,437.478241 602.905640,439.301239 603.084900,442.330872 
M610.533020,428.102570 
	C610.124084,429.541229 608.114746,430.544983 609.274292,432.481781 
	C612.650208,430.446381 612.943237,429.970032 613.461609,425.739319 
	C611.901672,425.361511 611.515259,426.648804 610.533020,428.102570 
M608.199890,424.039581 
	C604.222229,424.016174 603.928650,426.987061 602.783691,430.223724 
	C606.758179,429.626495 606.822510,426.493469 608.199890,424.039581 
M612.743835,439.442871 
	C608.833435,439.632324 608.991028,442.579559 608.650085,445.206055 
	C611.491821,444.538879 612.019958,442.128082 612.743835,439.442871 
M619.886414,448.188599 
	C619.126160,450.360443 619.895386,451.446350 621.837402,449.976227 
	C623.240540,448.914001 624.446472,447.080566 623.940857,444.852112 
	C621.489624,444.477478 621.180481,446.474304 619.886414,448.188599 
M634.330383,436.758453 
	C632.197205,438.260712 630.480347,439.981232 630.821960,443.430817 
	C633.929993,441.874451 635.232605,439.876343 634.330383,436.758453 
M612.531738,451.695953 
	C609.002075,451.929230 609.114075,454.370972 608.934998,457.433899 
	C611.771179,456.200714 612.988342,454.625702 612.531738,451.695953 
M603.666565,451.034973 
	C602.937378,452.120972 601.920471,453.829956 603.922363,453.946625 
	C606.528137,454.098511 606.637573,451.494690 607.209167,449.688110 
	C605.391235,448.280609 604.651672,449.295288 603.666565,451.034973 
M627.591125,393.390778 
	C628.935486,391.702515 630.554810,390.106323 629.881897,387.336853 
	C627.528748,388.491943 626.854126,390.416779 625.980957,392.148163 
	C625.440735,393.219238 625.367676,394.188782 627.591125,393.390778 
M601.205383,448.111572 
	C601.650757,447.028900 601.441223,445.844269 600.245239,445.928986 
	C598.306213,446.066315 598.068115,448.128601 597.281799,449.486816 
	C596.914734,450.120819 597.284729,450.842499 597.956848,451.077118 
	C600.185913,451.855347 600.080261,449.647797 601.205383,448.111572 
M617.855225,454.204956 
	C614.430359,455.016418 614.120605,457.090851 615.385986,459.829224 
	C616.889771,458.329315 618.641052,456.999390 617.855225,454.204956 
M587.945984,464.606750 
	C587.341797,465.802673 585.706421,466.959473 587.950378,468.394073 
	C589.783508,467.981628 590.615112,466.465088 590.630066,464.850159 
	C590.647888,462.929138 589.582153,462.606720 587.945984,464.606750 
M605.740417,472.484650 
	C604.470825,473.788727 602.584595,474.975525 604.735596,477.086731 
	C608.071838,474.325745 608.071838,474.325745 605.740417,472.484650 
M595.473877,466.089996 
	C593.465881,467.138092 592.251160,468.545013 593.123413,471.414490 
	C595.632141,470.242676 597.300049,469.119995 595.473877,466.089996 
M612.044617,466.505493 
	C612.483215,465.448486 613.174316,464.348419 611.356201,463.518372 
	C610.083191,464.621185 608.165649,465.689514 609.143005,467.692169 
	C609.877014,469.196045 611.058167,468.105774 612.044617,466.505493 
M594.097412,459.291077 
	C595.411011,458.122009 597.098206,457.072540 595.624207,454.889069 
	C592.485229,456.580109 592.485229,456.580109 594.097412,459.291077 
M600.383789,461.729736 
	C600.854980,460.409821 602.949768,459.359222 600.984802,457.471680 
	C598.715759,457.971588 597.892639,459.617279 598.017090,461.657349 
	C598.072815,462.571594 599.140259,462.591034 600.383789,461.729736 
z"/>
<path fill="#000000" opacity="1.000000" stroke="none" 
	d="
M555.056519,696.313110 
	C556.459839,679.151917 560.221680,663.036438 566.835571,647.607727 
	C570.548523,638.946289 575.332642,630.986023 582.326904,624.574402 
	C586.430603,620.812561 591.019470,617.608215 596.977417,618.189514 
	C603.253113,618.801941 606.834778,623.253113 607.340698,630.241516 
	C608.026978,639.721741 605.721375,648.767578 603.272156,657.748413 
	C598.302002,675.973450 592.291748,693.760376 579.693970,708.454834 
	C576.716553,711.927734 573.143860,714.621155 568.808228,716.150879 
	C562.331665,718.436218 557.146851,715.476257 555.785950,708.684570 
	C555.000061,704.762329 554.552246,700.787598 555.056519,696.313110 
z"/>
<path fill="#000000" opacity="1.000000" stroke="none" 
	d="
M441.193115,718.343262 
	C440.781952,690.454651 446.548828,664.789429 463.681244,642.602722 
	C467.064697,638.221069 471.427094,634.813171 476.987549,633.369446 
	C484.058472,631.533447 489.519440,634.803162 491.416260,641.806641 
	C493.367645,649.011353 491.906097,656.062195 490.269348,662.982483 
	C485.712006,682.250916 481.003510,701.506409 468.951080,717.888245 
	C466.673187,720.984375 464.208862,723.892700 461.162903,726.263062 
	C451.193787,734.021057 443.476257,731.110535 441.193115,718.343262 
z"/>
<path fill="#000000" opacity="1.000000" stroke="none" 
	d="
M549.284302,823.327576 
	C545.000977,826.994446 540.654785,829.532349 535.104004,829.367737 
	C528.792847,829.180725 524.827576,825.528625 524.717285,819.111938 
	C524.525696,807.967285 530.098022,799.042603 536.529846,790.671509 
	C543.344543,781.802124 551.598389,774.273071 560.167053,767.123413 
	C564.762024,763.289368 569.507568,759.634094 574.229492,755.955017 
	C575.462341,754.994446 576.557495,753.535339 579.105591,754.087402 
	C577.799500,758.474731 576.593323,762.697815 575.285339,766.889282 
	C570.779053,781.329773 566.223145,795.752747 559.207520,809.243164 
	C556.588684,814.278992 553.725159,819.135925 549.284302,823.327576 
z"/>
<path fill="#000000" opacity="1.000000" stroke="none" 
	d="
M695.632080,605.502991 
	C697.424622,603.927979 699.106079,602.879456 701.046143,602.281616 
	C705.516479,600.904114 708.939148,602.671509 710.362061,607.156921 
	C712.286621,613.223694 710.743652,619.093323 708.745850,624.714844 
	C703.397949,639.762878 691.992432,648.162292 677.138794,652.521606 
	C676.674683,652.657837 676.152100,652.680847 675.668762,652.633728 
	C675.371887,652.604736 675.097839,652.341797 674.066040,651.768860 
	C678.117920,635.132568 683.013855,618.796143 695.632080,605.502991 
z"/>
<path fill="#000000" opacity="1.000000" stroke="none" 
	d="
M194.173981,527.413879 
	C186.069550,531.811340 179.322769,531.097107 175.514374,525.680298 
	C169.533936,517.173889 173.957214,506.883881 184.595047,504.942017 
	C191.643967,503.655304 198.084656,505.764099 204.145645,509.282684 
	C206.333801,510.553009 206.590897,512.186523 205.286972,514.280884 
	C202.288239,519.097168 199.275360,523.890686 194.173981,527.413879 
z"/>
<path fill="#000000" opacity="1.000000" stroke="none" 
	d="
M255.421143,769.388428 
	C252.016586,774.814453 248.331375,779.438110 242.617447,782.036560 
	C235.097351,785.456360 227.617035,782.739502 224.880600,775.516174 
	C222.102844,768.183838 225.562042,761.003418 233.295746,758.616272 
	C241.295609,756.146973 248.720474,758.153381 255.676666,762.284973 
	C259.362244,764.473999 256.480621,766.816101 255.421143,769.388428 
z"/>
<path fill="#000000" opacity="1.000000" stroke="none" 
	d="
M574.607422,574.319397 
	C572.896179,577.240173 570.917358,576.319397 568.809509,575.459839 
	C551.494446,568.399170 535.840881,558.076050 518.974487,550.144958 
	C515.100403,548.323242 514.872559,545.860107 516.827881,542.520325 
	C519.939148,537.206238 522.440552,531.436829 526.161438,526.599548 
	C532.742920,518.043457 536.193481,507.771759 542.261292,498.959534 
	C544.240784,496.084869 545.656982,495.131989 549.009460,496.809784 
	C564.106323,504.365204 579.338257,511.649902 594.483765,519.109009 
	C600.761230,522.200684 600.820312,522.589966 597.547485,528.865234 
	C596.624268,530.635315 595.747253,532.445923 594.650085,534.106506 
	C586.394775,546.601074 583.411682,561.712708 574.607422,574.319397 
M548.195374,534.404602 
	C545.857605,533.168823 543.496765,531.974487 541.187683,530.687317 
	C537.980713,528.899597 535.555847,529.418152 533.778320,532.797485 
	C532.153198,535.887024 530.383118,538.903076 528.602722,541.907532 
	C526.518250,545.425110 526.887695,547.841675 530.891235,549.916626 
	C540.704956,555.002686 550.408386,560.299438 560.226990,565.383484 
	C564.263794,567.473694 566.431396,566.618835 568.439209,563.457092 
	C570.397644,560.373169 572.089172,557.109070 573.747437,553.847534 
	C576.464478,548.503357 576.194946,547.539856 570.932129,545.028137 
	C563.606384,541.531738 556.199524,538.205505 548.195374,534.404602 
M548.228394,507.774750 
	C546.254761,511.230377 544.283386,514.687317 542.306824,518.141296 
	C540.764038,520.837097 541.233826,522.650513 544.253723,524.052673 
	C552.953125,528.091858 561.478210,532.512695 570.229675,536.431030 
	C574.094299,538.161377 577.746826,542.944153 582.072754,540.583435 
	C586.033386,538.422058 587.312500,533.110413 589.607910,529.083191 
	C589.689453,528.940247 589.716858,528.766602 589.797607,528.623169 
	C591.413269,525.751221 590.676392,523.286438 587.928284,521.876282 
	C577.564270,516.558105 567.191711,511.234894 556.600769,506.398804 
	C554.436523,505.410522 551.059204,504.537628 548.228394,507.774750 
z"/>
<path fill="#000000" opacity="1.000000" stroke="none" 
	d="
M426.218628,427.829712 
	C434.280029,432.303314 434.312256,432.310699 432.265381,441.226929 
	C429.616913,452.763763 426.156189,464.025513 420.344391,474.419159 
	C417.549133,479.418182 414.078156,483.892151 408.782349,486.488068 
	C400.570251,490.513458 393.372803,487.440521 390.740265,478.762512 
	C387.625885,468.496155 388.198700,458.057434 389.682312,447.629547 
	C392.254639,429.549591 397.168762,412.206085 406.260010,396.224060 
	C407.162079,394.638245 408.206696,393.127136 409.273987,391.645355 
	C409.631317,391.149231 410.265533,390.852570 411.051147,390.252411 
	C412.802795,393.757660 411.898895,397.283142 412.134338,400.617340 
	C412.911407,411.621490 416.789551,420.938873 426.218628,427.829712 
z"/>
<path fill="#000000" opacity="1.000000" stroke="none" 
	d="
M428.943298,380.673767 
	C432.523926,380.945770 433.965546,383.216827 434.869537,385.791840 
	C438.337616,395.670685 437.652710,405.655121 435.826813,415.593658 
	C432.956451,416.340790 431.646454,414.618652 430.386444,413.172791 
	C423.174530,404.897278 422.732147,395.063354 424.238159,384.900665 
	C424.563202,382.707336 425.922607,380.887115 428.943298,380.673767 
z"/>
</svg>